# xmcd CD database file
#
# Track frame offsets:
#	150
#	45859
#	75195
#	118969
#	151449
#	190310
#	230761
#
# Disc length: 3193 seconds
#
# Revision: 1
# Processed by: cddbd v1.5.1PL2 Copyright (c) Steve Scherf et al.
# Submitted via: CDex 1.70beta1
#
DISCID=4e0c7707
DTITLE=Angelo Verploegens' Executive lounge - Live at hte Bimhuis Amsterdam The Netherlands
DYEAR=2005
DGENRE=Jazz
TTITLE0=Angelo Verploegen's Executive lounge - Queues Likely
TTITLE1=Angelo Verploegen's Executive lounge - Get in lane
TTITLE2=Angelo Verploegen's Executive lounge - Almost summertime
TTITLE3=Angelo Verploegen's Executive lounge - An Angels Work is Never Done
TTITLE4=Angelo Verploegen's Executive lounge - George's Dilemma
TTITLE5=Angelo Verploegen's Executive lounge - Stone and Fire
TTITLE6=Angelo Verploegen's Executive lounge - Brad's Feast
EXTD=YEAR: 2005
EXTT0=
EXTT1=
EXTT2=
EXTT3=
EXTT4=
EXTT5=
EXTT6=
PLAYORDER=
